<svg xmlns="http://www.w3.org/2000/svg" viewBox="0 0 32 32" width="32" height="32" shape-rendering="crispEdges">
  <!-- purple background matching brand color -->
  <rect width="32" height="32" rx="7" fill="#7c3aed"/>
  <!-- trophy pixel art: ['1111111','1111111','0111110','0011100','0001000','0011100','0111110'] -->
  <!-- row 0: 1111111 -->
  <rect x="5" y="5" width="3" height="3" fill="#ffffff"/>
  <rect x="8" y="5" width="3" height="3" fill="#ffffff"/>
  <rect x="11" y="5" width="3" height="3" fill="#ffffff"/>
  <rect x="14" y="5" width="3" height="3" fill="#ffffff"/>
  <rect x="17" y="5" width="3" height="3" fill="#ffffff"/>
  <rect x="20" y="5" width="3" height="3" fill="#ffffff"/>
  <rect x="23" y="5" width="3" height="3" fill="#ffffff"/>
  <!-- row 1: 1111111 -->
  <rect x="5" y="8" width="3" height="3" fill="#ffffff"/>
  <rect x="8" y="8" width="3" height="3" fill="#ffffff"/>
  <rect x="11" y="8" width="3" height="3" fill="#ffffff"/>
  <rect x="14" y="8" width="3" height="3" fill="#ffffff"/>
  <rect x="17" y="8" width="3" height="3" fill="#ffffff"/>
  <rect x="20" y="8" width="3" height="3" fill="#ffffff"/>
  <rect x="23" y="8" width="3" height="3" fill="#ffffff"/>
  <!-- row 2: 0111110 -->
  <rect x="8" y="11" width="3" height="3" fill="#ffffff"/>
  <rect x="11" y="11" width="3" height="3" fill="#ffffff"/>
  <rect x="14" y="11" width="3" height="3" fill="#ffffff"/>
  <rect x="17" y="11" width="3" height="3" fill="#ffffff"/>
  <rect x="20" y="11" width="3" height="3" fill="#ffffff"/>
  <!-- row 3: 0011100 -->
  <rect x="11" y="14" width="3" height="3" fill="#ffffff"/>
  <rect x="14" y="14" width="3" height="3" fill="#ffffff"/>
  <rect x="17" y="14" width="3" height="3" fill="#ffffff"/>
  <!-- row 4: 0001000 -->
  <rect x="14" y="17" width="3" height="3" fill="#ffffff"/>
  <!-- row 5: 0011100 -->
  <rect x="11" y="20" width="3" height="3" fill="#ffffff"/>
  <rect x="14" y="20" width="3" height="3" fill="#ffffff"/>
  <rect x="17" y="20" width="3" height="3" fill="#ffffff"/>
  <!-- row 6: 0111110 -->
  <rect x="8" y="23" width="3" height="3" fill="#ffffff"/>
  <rect x="11" y="23" width="3" height="3" fill="#ffffff"/>
  <rect x="14" y="23" width="3" height="3" fill="#ffffff"/>
  <rect x="17" y="23" width="3" height="3" fill="#ffffff"/>
  <rect x="20" y="23" width="3" height="3" fill="#ffffff"/>
</svg>
